{
  "version": "1.1.6",
  "modules": [
    {
      "id": 1,
      "plugin": "Core",
      "version": "1.1.6",
      "model": "AudioInterface",
      "params": [],
      "data": {
        "audio": {
          "driver": 5,
          "deviceName": "Apple Inc.: MacBook Air Lautsprecher",
          "offset": 0,
          "maxChannels": 8,
          "sampleRate": 44100,
          "blockSize": 256
        }
      },
      "pos": [
        125,
        0
      ]
    },
    {
      "id": 2,
      "plugin": "Fundamental",
      "version": "1.4.0",
      "model": "VCMixer",
      "params": [
        {
          "id": 0,
          "value": 1.0
        },
        {
          "id": 1,
          "value": 1.0
        },
        {
          "id": 2,
          "value": 1.0
        },
        {
          "id": 3,
          "value": 0.622407079
        },
        {
          "id": 4,
          "value": 0.609676421
        }
      ],
      "leftModuleId": 66,
      "pos": [
        114,
        0
      ]
    },
    {
      "id": 36,
      "plugin": "ImpromptuModular",
      "version": "1.1.12",
      "model": "Clocked-Clkd",
      "params": [
        {
          "id": 0,
          "value": 0.0
        },
        {
          "id": 1,
          "value": 0.0
        },
        {
          "id": 2,
          "value": 0.0
        },
        {
          "id": 3,
          "value": 126.0
        },
        {
          "id": 4,
          "value": 0.0
        },
        {
          "id": 5,
          "value": 0.0
        },
        {
          "id": 6,
          "value": 0.0
        },
        {
          "id": 7,
          "value": 0.0
        },
        {
          "id": 8,
          "value": 0.0
        },
        {
          "id": 9,
          "value": 0.0
        }
      ],
      "data": {
        "panelTheme": 0,
        "running": true,
        "bpmDetectionMode": false,
        "resetOnStartStop": 0,
        "ppqn": 4,
        "resetClockOutputsHigh": true,
        "momentaryRunInput": true,
        "displayIndex": 0,
        "trigOuts": [
          false,
          false,
          false,
          false
        ],
        "clockMaster": -1
      },
      "pos": [
        0,
        0
      ]
    },
    {
      "id": 37,
      "plugin": "CountModula",
      "version": "1.15.1",
      "model": "ClockDivider",
      "params": [
        {
          "id": 0,
          "value": 1.0
        },
        {
          "id": 1,
          "value": 0.0
        }
      ],
      "data": {
        "moduleVersion": 1,
        "count": 87,
        "theme": 0
      },
      "pos": [
        11,
        0
      ]
    },
    {
      "id": 39,
      "plugin": "Hora-treasureFree",
      "version": "1.0.3",
      "model": "HiHat",
      "params": [
        {
          "id": 0,
          "value": 0.482150793
        },
        {
          "id": 1,
          "value": 0.611550689
        },
        {
          "id": 2,
          "value": 0.730440021
        },
        {
          "id": 3,
          "value": 0.0
        },
        {
          "id": 4,
          "value": 0.0
        },
        {
          "id": 5,
          "value": 0.687000036
        },
        {
          "id": 6,
          "value": 1.25049996
        },
        {
          "id": 7,
          "value": 0.556000113
        },
        {
          "id": 8,
          "value": 0.800000012
        },
        {
          "id": 9,
          "value": 0.600000024
        },
        {
          "id": 10,
          "value": 0.100000001
        },
        {
          "id": 11,
          "value": 0.421000004
        }
      ],
      "pos": [
        60,
        0
      ]
    },
    {
      "id": 40,
      "plugin": "Befaco",
      "version": "1.1.1",
      "model": "Kickall",
      "params": [
        {
          "id": 0,
          "value": 105.524399
        },
        {
          "id": 1,
          "value": 0.0
        },
        {
          "id": 2,
          "value": 0.0885000154
        },
        {
          "id": 3,
          "value": 0.342000186
        },
        {
          "id": 4,
          "value": 0.0
        },
        {
          "id": 5,
          "value": 0.429000348
        }
      ],
      "pos": [
        23,
        0
      ]
    },
    {
      "id": 43,
      "plugin": "Extratone",
      "version": "1.2.0",
      "model": "Meganeura",
      "params": [
        {
          "id": 0,
          "value": 0.0
        },
        {
          "id": 1,
          "value": 1.0
        },
        {
          "id": 2,
          "value": 0.0
        },
        {
          "id": 3,
          "value": 3.0
        },
        {
          "id": 4,
          "value": 2.0
        },
        {
          "id": 5,
          "value": 1.0
        },
        {
          "id": 6,
          "value": 2.0
        }
      ],
      "pos": [
        51,
        0
      ]
    },
    {
      "id": 44,
      "plugin": "Fundamental",
      "version": "1.4.0",
      "model": "LFO",
      "params": [
        {
          "id": 0,
          "value": 1.0
        },
        {
          "id": 1,
          "value": 0.0
        },
        {
          "id": 2,
          "value": 2.05300117
        },
        {
          "id": 3,
          "value": 0.0
        },
        {
          "id": 4,
          "value": 0.0
        },
        {
          "id": 5,
          "value": 0.5
        },
        {
          "id": 6,
          "value": 0.0
        }
      ],
      "pos": [
        34,
        0
      ]
    },
    {
      "id": 46,
      "plugin": "Fundamental",
      "version": "1.4.0",
      "model": "Random",
      "params": [
        {
          "id": 0,
          "value": -0.315480769
        },
        {
          "id": 1,
          "value": 0.818000019
        },
        {
          "id": 2,
          "value": 1.0
        },
        {
          "id": 3,
          "value": 1.0
        }
      ],
      "pos": [
        45,
        0
      ]
    },
    {
      "id": 49,
      "plugin": "CountModula",
      "version": "1.15.1",
      "model": "Sequencer8",
      "params": [
        {
          "id": 0,
          "value": 1.0
        },
        {
          "id": 1,
          "value": 1.0
        },
        {
          "id": 2,
          "value": 1.0
        },
        {
          "id": 3,
          "value": 1.0
        },
        {
          "id": 4,
          "value": 1.0
        },
        {
          "id": 5,
          "value": 1.0
        },
        {
          "id": 6,
          "value": 1.0
        },
        {
          "id": 7,
          "value": 1.0
        },
        {
          "id": 8,
          "value": 0.239999995
        },
        {
          "id": 9,
          "value": 0.182999998
        },
        {
          "id": 10,
          "value": 0.120000027
        },
        {
          "id": 11,
          "value": 0.238499776
        },
        {
          "id": 12,
          "value": 0.329999566
        },
        {
          "id": 13,
          "value": 0.256500006
        },
        {
          "id": 14,
          "value": 0.319499999
        },
        {
          "id": 15,
          "value": 0.243000075
        },
        {
          "id": 16,
          "value": 3.0
        },
        {
          "id": 17,
          "value": 8.0
        },
        {
          "id": 18,
          "value": 3.28500056
        },
        {
          "id": 19,
          "value": 4.0
        },
        {
          "id": 20,
          "value": 1.0
        }
      ],
      "data": {
        "moduleVersion": 1,
        "currentStep": 1,
        "direction": 2,
        "clockState": false,
        "runState": true,
        "theme": 0
      },
      "pos": [
        23,
        1
      ]
    },
    {
      "id": 50,
      "plugin": "Befaco",
      "version": "1.1.1",
      "model": "EvenVCO",
      "params": [
        {
          "id": 0,
          "value": -1.0
        },
        {
          "id": 1,
          "value": 0.0
        },
        {
          "id": 2,
          "value": 0.0
        }
      ],
      "pos": [
        49,
        1
      ]
    },
    {
      "id": 52,
      "plugin": "Fundamental",
      "version": "1.4.0",
      "model": "VCF",
      "params": [
        {
          "id": 0,
          "value": 0.55349797
        },
        {
          "id": 1,
          "value": 0.5
        },
        {
          "id": 2,
          "value": 0.544501185
        },
        {
          "id": 3,
          "value": 0.257999748
        },
        {
          "id": 4,
          "value": 0.0
        }
      ],
      "pos": [
        58,
        1
      ]
    },
    {
      "id": 55,
      "plugin": "AlgoritmArte",
      "version": "1.6.2",
      "model": "HoldMeTight",
      "params": [
        {
          "id": 0,
          "value": 0.0
        },
        {
          "id": 1,
          "value": 0.0
        },
        {
          "id": 2,
          "value": 0.0
        },
        {
          "id": 3,
          "value": 2.0
        },
        {
          "id": 4,
          "value": 0.0
        },
        {
          "id": 5,
          "value": 0.0
        },
        {
          "id": 6,
          "value": 0.0
        },
        {
          "id": 7,
          "value": 0.0
        },
        {
          "id": 8,
          "value": 0.0
        },
        {
          "id": 9,
          "value": 0.0
        },
        {
          "id": 10,
          "value": 0.0
        },
        {
          "id": 11,
          "value": 0.0
        },
        {
          "id": 12,
          "value": 0.0
        },
        {
          "id": 13,
          "value": 0.0
        },
        {
          "id": 14,
          "value": 0.0
        },
        {
          "id": 15,
          "value": 0.0
        }
      ],
      "data": {
        "notes": [
          1,
          1,
          1,
          1,
          1,
          1,
          1,
          1,
          1,
          1,
          1,
          1
        ],
        "quantize": [
          0,
          0,
          0
        ]
      },
      "pos": [
        100,
        1
      ]
    },
    {
      "id": 56,
      "plugin": "CountModula",
      "version": "1.15.1",
      "model": "GateModifier",
      "params": [
        {
          "id": 0,
          "value": 0.0
        },
        {
          "id": 1,
          "value": 0.374999881
        },
        {
          "id": 2,
          "value": 1.0
        },
        {
          "id": 3,
          "value": 0.0
        }
      ],
      "data": {
        "moduleVersion": 1,
        "theme": 0
      },
      "pos": [
        91,
        1
      ]
    },
    {
      "id": 65,
      "plugin": "Befaco",
      "version": "1.1.1",
      "model": "EvenVCO",
      "params": [
        {
          "id": 0,
          "value": -4.0
        },
        {
          "id": 1,
          "value": 0.0
        },
        {
          "id": 2,
          "value": 0.0
        }
      ],
      "pos": [
        81,
        0
      ]
    },
    {
      "id": 66,
      "plugin": "MSM",
      "version": "1.0.0",
      "model": "ADSR",
      "params": [
        {
          "id": 0,
          "value": 0.377999961
        },
        {
          "id": 1,
          "value": 0.0
        },
        {
          "id": 2,
          "value": 0.459000051
        },
        {
          "id": 3,
          "value": 0.464999944
        },
        {
          "id": 4,
          "value": 1.0
        },
        {
          "id": 5,
          "value": 1.0
        },
        {
          "id": 6,
          "value": 1.0
        }
      ],
      "rightModuleId": 2,
      "data": {
        "Theme": 0
      },
      "pos": [
        105,
        0
      ]
    },
    {
      "id": 67,
      "plugin": "CountModula",
      "version": "1.15.1",
      "model": "GateModifier",
      "params": [
        {
          "id": 0,
          "value": 0.0
        },
        {
          "id": 1,
          "value": 0.0900000036
        },
        {
          "id": 2,
          "value": 1.0
        },
        {
          "id": 3,
          "value": 1.0
        }
      ],
      "data": {
        "moduleVersion": 1,
        "theme": 0
      },
      "pos": [
        72,
        0
      ]
    },
    {
      "id": 68,
      "plugin": "Fundamental",
      "version": "1.4.0",
      "model": "VCF",
      "params": [
        {
          "id": 0,
          "value": 0.479497939
        },
        {
          "id": 1,
          "value": 0.5
        },
        {
          "id": 2,
          "value": 0.681000054
        },
        {
          "id": 3,
          "value": 0.605999947
        },
        {
          "id": 4,
          "value": 0.552999914
        }
      ],
      "pos": [
        90,
        0
      ]
    },
    {
      "id": 70,
      "plugin": "Fundamental",
      "version": "1.4.0",
      "model": "Quantizer",
      "params": [],
      "data": {
        "enabledNotes": [
          false,
          true,
          true,
          true,
          true,
          false,
          true,
          true,
          false,
          true,
          false,
          true
        ]
      },
      "pos": [
        43,
        1
      ]
    },
    {
      "id": 71,
      "plugin": "MSM",
      "version": "1.0.0",
      "model": "ADSR",
      "params": [
        {
          "id": 0,
          "value": 0.0
        },
        {
          "id": 1,
          "value": 0.200000003
        },
        {
          "id": 2,
          "value": 0.854000092
        },
        {
          "id": 3,
          "value": 0.857999384
        },
        {
          "id": 4,
          "value": 1.0
        },
        {
          "id": 5,
          "value": 1.0
        },
        {
          "id": 6,
          "value": 1.0
        }
      ],
      "data": {
        "Theme": 0
      },
      "pos": [
        67,
        1
      ]
    }
  ],
  "cables": [
    {
      "id": 57,
      "outputModuleId": 2,
      "outputId": 0,
      "inputModuleId": 1,
      "inputId": 0,
      "color": "#0986ad"
    },
    {
      "id": 66,
      "outputModuleId": 36,
      "outputId": 3,
      "inputModuleId": 37,
      "inputId": 0,
      "color": "#0986ad"
    },
    {
      "id": 68,
      "outputModuleId": 39,
      "outputId": 2,
      "inputModuleId": 2,
      "inputId": 1,
      "color": "#c9b70e"
    },
    {
      "id": 74,
      "outputModuleId": 40,
      "outputId": 0,
      "inputModuleId": 2,
      "inputId": 2,
      "color": "#0986ad"
    },
    {
      "id": 81,
      "outputModuleId": 44,
      "outputId": 0,
      "inputModuleId": 39,
      "inputId": 4,
      "color": "#0986ad"
    },
    {
      "id": 73,
      "outputModuleId": 36,
      "outputId": 3,
      "inputModuleId": 40,
      "inputId": 0,
      "color": "#c91847"
    },
    {
      "id": 85,
      "outputModuleId": 37,
      "outputId": 0,
      "inputModuleId": 39,
      "inputId": 1,
      "color": "#0986ad"
    },
    {
      "id": 80,
      "outputModuleId": 43,
      "outputId": 4,
      "inputModuleId": 39,
      "inputId": 0,
      "color": "#c91847"
    },
    {
      "id": 91,
      "outputModuleId": 50,
      "outputId": 1,
      "inputModuleId": 52,
      "inputId": 3,
      "color": "#0c8e15"
    },
    {
      "id": 89,
      "outputModuleId": 43,
      "outputId": 1,
      "inputModuleId": 49,
      "inputId": 1,
      "color": "#0986ad"
    },
    {
      "id": 104,
      "outputModuleId": 44,
      "outputId": 0,
      "inputModuleId": 52,
      "inputId": 0,
      "color": "#0c8e15"
    },
    {
      "id": 79,
      "outputModuleId": 46,
      "outputId": 3,
      "inputModuleId": 43,
      "inputId": 3,
      "color": "#c9b70e"
    },
    {
      "id": 107,
      "outputModuleId": 2,
      "outputId": 0,
      "inputModuleId": 1,
      "inputId": 1,
      "color": "#c9b70e"
    },
    {
      "id": 109,
      "outputModuleId": 43,
      "outputId": 2,
      "inputModuleId": 56,
      "inputId": 1,
      "color": "#c91847"
    },
    {
      "id": 112,
      "outputModuleId": 56,
      "outputId": 0,
      "inputModuleId": 55,
      "inputId": 0,
      "color": "#0986ad"
    },
    {
      "id": 106,
      "outputModuleId": 46,
      "outputId": 0,
      "inputModuleId": 43,
      "inputId": 5,
      "color": "#0986ad"
    },
    {
      "id": 139,
      "outputModuleId": 43,
      "outputId": 3,
      "inputModuleId": 67,
      "inputId": 1,
      "color": "#c9b70e"
    },
    {
      "id": 144,
      "outputModuleId": 66,
      "outputId": 0,
      "inputModuleId": 2,
      "inputId": 8,
      "color": "#0c8e15"
    },
    {
      "id": 147,
      "outputModuleId": 46,
      "outputId": 1,
      "inputModuleId": 66,
      "inputId": 2,
      "color": "#c9b70e"
    },
    {
      "id": 146,
      "outputModuleId": 68,
      "outputId": 0,
      "inputModuleId": 2,
      "inputId": 4,
      "color": "#0986ad"
    },
    {
      "id": 149,
      "outputModuleId": 37,
      "outputId": 1,
      "inputModuleId": 66,
      "inputId": 4,
      "color": "#c91847"
    },
    {
      "id": 151,
      "outputModuleId": 67,
      "outputId": 0,
      "inputModuleId": 68,
      "inputId": 0,
      "color": "#c9b70e"
    },
    {
      "id": 141,
      "outputModuleId": 65,
      "outputId": 4,
      "inputModuleId": 68,
      "inputId": 3,
      "color": "#c91847"
    },
    {
      "id": 143,
      "outputModuleId": 55,
      "outputId": 0,
      "inputModuleId": 65,
      "inputId": 1,
      "color": "#c9b70e"
    },
    {
      "id": 152,
      "outputModuleId": 49,
      "outputId": 3,
      "inputModuleId": 70,
      "inputId": 0,
      "color": "#0c8e15"
    },
    {
      "id": 153,
      "outputModuleId": 70,
      "outputId": 0,
      "inputModuleId": 55,
      "inputId": 3,
      "color": "#c91847"
    },
    {
      "id": 154,
      "outputModuleId": 70,
      "outputId": 0,
      "inputModuleId": 50,
      "inputId": 1,
      "color": "#0986ad"
    },
    {
      "id": 155,
      "outputModuleId": 44,
      "outputId": 1,
      "inputModuleId": 49,
      "inputId": 4,
      "color": "#c9b70e"
    },
    {
      "id": 158,
      "outputModuleId": 71,
      "outputId": 0,
      "inputModuleId": 2,
      "inputId": 7,
      "color": "#0986ad"
    },
    {
      "id": 77,
      "outputModuleId": 36,
      "outputId": 3,
      "inputModuleId": 43,
      "inputId": 2,
      "color": "#c91847"
    },
    {
      "id": 157,
      "outputModuleId": 37,
      "outputId": 0,
      "inputModuleId": 71,
      "inputId": 4,
      "color": "#c91847"
    },
    {
      "id": 164,
      "outputModuleId": 52,
      "outputId": 1,
      "inputModuleId": 2,
      "inputId": 3,
      "color": "#0986ad"
    }
  ]
}