{
  "version": "1.1.6",
  "modules": [
    {
      "id": 1,
      "plugin": "Core",
      "version": "1.1.6",
      "model": "AudioInterface",
      "params": [],
      "data": {
        "audio": {
          "driver": 5,
          "deviceName": "Apple Inc.: MacBook Air Lautsprecher",
          "offset": 0,
          "maxChannels": 8,
          "sampleRate": 44100,
          "blockSize": 256
        }
      },
      "pos": [
        118,
        1
      ]
    },
    {
      "id": 72,
      "plugin": "Bogaudio",
      "version": "1.1.37",
      "model": "Bogaudio-Mix8",
      "params": [
        {
          "id": 0,
          "value": 0.813089907
        },
        {
          "id": 1,
          "value": 0.0
        },
        {
          "id": 2,
          "value": 0.0
        },
        {
          "id": 3,
          "value": 0.922590852
        },
        {
          "id": 4,
          "value": 0.0
        },
        {
          "id": 5,
          "value": 0.0
        },
        {
          "id": 6,
          "value": 0.852091193
        },
        {
          "id": 7,
          "value": 0.0
        },
        {
          "id": 8,
          "value": 0.0
        },
        {
          "id": 9,
          "value": 0.870091081
        },
        {
          "id": 10,
          "value": 0.0
        },
        {
          "id": 11,
          "value": 0.0
        },
        {
          "id": 12,
          "value": 0.901590407
        },
        {
          "id": 13,
          "value": 0.0
        },
        {
          "id": 14,
          "value": 0.0
        },
        {
          "id": 15,
          "value": 0.909090936
        },
        {
          "id": 16,
          "value": 0.0
        },
        {
          "id": 17,
          "value": 0.0
        },
        {
          "id": 18,
          "value": 0.909090936
        },
        {
          "id": 19,
          "value": 0.0
        },
        {
          "id": 20,
          "value": 0.0
        },
        {
          "id": 21,
          "value": 0.909090936
        },
        {
          "id": 22,
          "value": 0.0
        },
        {
          "id": 23,
          "value": 0.0
        },
        {
          "id": 24,
          "value": 0.909090936
        },
        {
          "id": 25,
          "value": 1.0
        },
        {
          "id": 26,
          "value": 0.0
        }
      ],
      "data": {
        "dim_decibels": 12.0,
        "poly_channel_offset": -1
      },
      "pos": [
        90,
        1
      ]
    },
    {
      "id": 101,
      "plugin": "Befaco",
      "version": "1.1.1",
      "model": "Kickall",
      "params": [
        {
          "id": 0,
          "value": 56.5792122
        },
        {
          "id": 1,
          "value": 0.0
        },
        {
          "id": 2,
          "value": 0.0
        },
        {
          "id": 3,
          "value": 0.468998611
        },
        {
          "id": 4,
          "value": 0.247499838
        },
        {
          "id": 5,
          "value": 0.193498313
        }
      ],
      "pos": [
        85,
        0
      ]
    },
    {
      "id": 123,
      "plugin": "Fundamental",
      "version": "1.4.0",
      "model": "ADSR",
      "params": [
        {
          "id": 0,
          "value": 0.0
        },
        {
          "id": 1,
          "value": 0.0
        },
        {
          "id": 2,
          "value": 1.0
        },
        {
          "id": 3,
          "value": 0.710497439
        }
      ],
      "pos": [
        96,
        0
      ]
    },
    {
      "id": 129,
      "plugin": "Fundamental",
      "version": "1.4.0",
      "model": "VCF",
      "params": [
        {
          "id": 0,
          "value": 0.598249972
        },
        {
          "id": 1,
          "value": 0.0
        },
        {
          "id": 2,
          "value": 0.735999048
        },
        {
          "id": 3,
          "value": 0.570000231
        },
        {
          "id": 4,
          "value": 0.0
        }
      ],
      "pos": [
        109,
        0
      ]
    },
    {
      "id": 130,
      "plugin": "Bogaudio",
      "version": "1.1.37",
      "model": "Bogaudio-Noise",
      "params": [],
      "data": {
        "poly_channels": 1
      },
      "pos": [
        105,
        0
      ]
    },
    {
      "id": 143,
      "plugin": "Fundamental",
      "version": "1.4.0",
      "model": "VCF",
      "params": [
        {
          "id": 0,
          "value": 0.525996387
        },
        {
          "id": 1,
          "value": 0.5
        },
        {
          "id": 2,
          "value": 0.499500155
        },
        {
          "id": 3,
          "value": 0.147999063
        },
        {
          "id": 4,
          "value": 0.0
        }
      ],
      "pos": [
        56,
        1
      ]
    },
    {
      "id": 149,
      "plugin": "ImpromptuModular",
      "version": "1.1.12",
      "model": "Clocked-Clkd",
      "params": [
        {
          "id": 0,
          "value": 0.0
        },
        {
          "id": 1,
          "value": 0.0
        },
        {
          "id": 2,
          "value": 0.0
        },
        {
          "id": 3,
          "value": 130.0
        },
        {
          "id": 4,
          "value": 0.0
        },
        {
          "id": 5,
          "value": 0.0
        },
        {
          "id": 6,
          "value": 0.0
        },
        {
          "id": 7,
          "value": 0.0
        },
        {
          "id": 8,
          "value": 0.0
        },
        {
          "id": 9,
          "value": 0.0
        }
      ],
      "data": {
        "panelTheme": 0,
        "running": true,
        "bpmDetectionMode": false,
        "resetOnStartStop": 0,
        "ppqn": 4,
        "resetClockOutputsHigh": true,
        "momentaryRunInput": true,
        "displayIndex": 0,
        "trigOuts": [
          false,
          false,
          false,
          false
        ],
        "clockMaster": -1
      },
      "pos": [
        0,
        0
      ]
    },
    {
      "id": 150,
      "plugin": "Extratone",
      "version": "1.2.0",
      "model": "Meganeura",
      "params": [
        {
          "id": 0,
          "value": 0.0
        },
        {
          "id": 1,
          "value": 0.0
        },
        {
          "id": 2,
          "value": 0.0
        },
        {
          "id": 3,
          "value": 4.0
        },
        {
          "id": 4,
          "value": 1.0
        },
        {
          "id": 5,
          "value": 1.0
        },
        {
          "id": 6,
          "value": 1.0
        }
      ],
      "pos": [
        23,
        0
      ]
    },
    {
      "id": 151,
      "plugin": "CountModula",
      "version": "1.15.1",
      "model": "ClockDivider",
      "params": [
        {
          "id": 0,
          "value": 0.0
        },
        {
          "id": 1,
          "value": 1.0
        }
      ],
      "data": {
        "moduleVersion": 1,
        "count": 354,
        "theme": 0
      },
      "pos": [
        11,
        0
      ]
    },
    {
      "id": 154,
      "plugin": "Fundamental",
      "version": "1.4.0",
      "model": "VCO",
      "params": [
        {
          "id": 0,
          "value": 1.0
        },
        {
          "id": 1,
          "value": 1.0
        },
        {
          "id": 2,
          "value": -28.6500225
        },
        {
          "id": 3,
          "value": 0.066000089
        },
        {
          "id": 4,
          "value": 0.0689999983
        },
        {
          "id": 5,
          "value": 0.5
        },
        {
          "id": 6,
          "value": 0.0
        }
      ],
      "pos": [
        38,
        1
      ]
    },
    {
      "id": 160,
      "plugin": "Fundamental",
      "version": "1.4.0",
      "model": "LFO2",
      "params": [
        {
          "id": 0,
          "value": 1.0
        },
        {
          "id": 1,
          "value": 1.0
        },
        {
          "id": 2,
          "value": -3.72499466
        },
        {
          "id": 3,
          "value": 1.3859992
        },
        {
          "id": 4,
          "value": 0.5
        }
      ],
      "pos": [
        22,
        1
      ]
    },
    {
      "id": 168,
      "plugin": "Fundamental",
      "version": "1.4.0",
      "model": "VCF",
      "params": [
        {
          "id": 0,
          "value": 0.994000018
        },
        {
          "id": 1,
          "value": 0.5
        },
        {
          "id": 2,
          "value": 0.00899984501
        },
        {
          "id": 3,
          "value": 0.0
        },
        {
          "id": 4,
          "value": 0.0
        }
      ],
      "pos": [
        135,
        0
      ]
    },
    {
      "id": 105,
      "plugin": "CountModula",
      "version": "1.15.1",
      "model": "GateSequencer8",
      "params": [
        {
          "id": 0,
          "value": 1.0
        },
        {
          "id": 1,
          "value": 0.0
        },
        {
          "id": 2,
          "value": 0.0
        },
        {
          "id": 3,
          "value": 0.0
        },
        {
          "id": 4,
          "value": 1.0
        },
        {
          "id": 5,
          "value": 0.0
        },
        {
          "id": 6,
          "value": 0.0
        },
        {
          "id": 7,
          "value": 0.0
        },
        {
          "id": 8,
          "value": 0.0
        },
        {
          "id": 9,
          "value": 0.0
        },
        {
          "id": 10,
          "value": 1.0
        },
        {
          "id": 11,
          "value": 0.0
        },
        {
          "id": 12,
          "value": 0.0
        },
        {
          "id": 13,
          "value": 0.0
        },
        {
          "id": 14,
          "value": 1.0
        },
        {
          "id": 15,
          "value": 0.0
        },
        {
          "id": 16,
          "value": 1.0
        },
        {
          "id": 17,
          "value": 1.0
        },
        {
          "id": 18,
          "value": 1.0
        },
        {
          "id": 19,
          "value": 0.0
        },
        {
          "id": 20,
          "value": 1.0
        },
        {
          "id": 21,
          "value": 0.0
        },
        {
          "id": 22,
          "value": 1.0
        },
        {
          "id": 23,
          "value": 1.0
        },
        {
          "id": 24,
          "value": 0.0
        },
        {
          "id": 25,
          "value": 0.0
        },
        {
          "id": 26,
          "value": 1.0
        },
        {
          "id": 27,
          "value": 0.0
        },
        {
          "id": 28,
          "value": 0.0
        },
        {
          "id": 29,
          "value": 0.0
        },
        {
          "id": 30,
          "value": 0.0
        },
        {
          "id": 31,
          "value": 1.0
        },
        {
          "id": 32,
          "value": 1.0
        },
        {
          "id": 33,
          "value": 1.0
        },
        {
          "id": 34,
          "value": 0.0
        },
        {
          "id": 35,
          "value": 0.0
        },
        {
          "id": 36,
          "value": 1.0
        },
        {
          "id": 37,
          "value": 1.0
        },
        {
          "id": 38,
          "value": 0.0
        },
        {
          "id": 39,
          "value": 0.0
        },
        {
          "id": 40,
          "value": 0.0
        },
        {
          "id": 41,
          "value": 1.0
        },
        {
          "id": 42,
          "value": 0.0
        },
        {
          "id": 43,
          "value": 0.0
        },
        {
          "id": 44,
          "value": 0.0
        },
        {
          "id": 45,
          "value": 0.0
        },
        {
          "id": 46,
          "value": 1.0
        },
        {
          "id": 47,
          "value": 1.0
        },
        {
          "id": 48,
          "value": 0.0
        },
        {
          "id": 49,
          "value": 0.0
        },
        {
          "id": 50,
          "value": 0.0
        },
        {
          "id": 51,
          "value": 0.0
        },
        {
          "id": 52,
          "value": 0.0
        },
        {
          "id": 53,
          "value": 0.0
        },
        {
          "id": 54,
          "value": 0.0
        },
        {
          "id": 55,
          "value": 0.0
        },
        {
          "id": 56,
          "value": 0.0
        },
        {
          "id": 57,
          "value": 0.0
        },
        {
          "id": 58,
          "value": 0.0
        },
        {
          "id": 59,
          "value": 0.0
        },
        {
          "id": 60,
          "value": 0.0
        },
        {
          "id": 61,
          "value": 0.0
        },
        {
          "id": 62,
          "value": 0.0
        },
        {
          "id": 63,
          "value": 0.0
        },
        {
          "id": 64,
          "value": 8.0
        },
        {
          "id": 65,
          "value": 0.0
        },
        {
          "id": 66,
          "value": 0.0
        },
        {
          "id": 67,
          "value": 0.0
        },
        {
          "id": 68,
          "value": 0.0
        },
        {
          "id": 69,
          "value": 0.0
        },
        {
          "id": 70,
          "value": 0.0
        },
        {
          "id": 71,
          "value": 0.0
        },
        {
          "id": 72,
          "value": 0.0
        },
        {
          "id": 73,
          "value": 0.0
        },
        {
          "id": 74,
          "value": 0.0
        }
      ],
      "data": {
        "moduleVersion": 1,
        "currentStep": 8,
        "direction": 0,
        "clockState": false,
        "runState": true,
        "theme": 0
      },
      "pos": [
        32,
        0
      ]
    },
    {
      "id": 169,
      "plugin": "Fundamental",
      "version": "1.4.0",
      "model": "ADSR",
      "params": [
        {
          "id": 0,
          "value": 0.0
        },
        {
          "id": 1,
          "value": 0.0
        },
        {
          "id": 2,
          "value": 1.0
        },
        {
          "id": 3,
          "value": 0.643000245
        }
      ],
      "pos": [
        29,
        1
      ]
    },
    {
      "id": 174,
      "plugin": "Hora-treasureFree",
      "version": "1.0.3",
      "model": "HiHat",
      "params": [
        {
          "id": 0,
          "value": 0.357750595
        },
        {
          "id": 1,
          "value": 0.667199969
        },
        {
          "id": 2,
          "value": 0.779159963
        },
        {
          "id": 3,
          "value": 0.0
        },
        {
          "id": 4,
          "value": 0.899999976
        },
        {
          "id": 5,
          "value": 0.743999958
        },
        {
          "id": 6,
          "value": 1.0
        },
        {
          "id": 7,
          "value": 0.776000082
        },
        {
          "id": 8,
          "value": 0.511999846
        },
        {
          "id": 9,
          "value": 0.600000024
        },
        {
          "id": 10,
          "value": 0.120250061
        },
        {
          "id": 11,
          "value": 0.421000004
        }
      ],
      "pos": [
        126,
        0
      ]
    },
    {
      "id": 175,
      "plugin": "MSM",
      "version": "1.0.0",
      "model": "Wavefolder",
      "params": [
        {
          "id": 0,
          "value": 1.44224989
        },
        {
          "id": 1,
          "value": -0.00500001153
        },
        {
          "id": 2,
          "value": 0.220500007
        },
        {
          "id": 3,
          "value": 0.0974999219
        },
        {
          "id": 4,
          "value": 0.457500041
        },
        {
          "id": 5,
          "value": 0.0
        },
        {
          "id": 6,
          "value": 0.0
        },
        {
          "id": 7,
          "value": 2.50999975
        },
        {
          "id": 8,
          "value": 0.0
        }
      ],
      "data": {
        "Theme": 0
      },
      "pos": [
        49,
        1
      ]
    },
    {
      "id": 182,
      "plugin": "Fundamental",
      "version": "1.4.0",
      "model": "VCA-1",
      "params": [
        {
          "id": 0,
          "value": 1.0
        },
        {
          "id": 1,
          "value": 1.0
        }
      ],
      "pos": [
        69,
        1
      ]
    },
    {
      "id": 183,
      "plugin": "Fundamental",
      "version": "1.4.0",
      "model": "VCO",
      "params": [
        {
          "id": 0,
          "value": 1.0
        },
        {
          "id": 1,
          "value": 1.0
        },
        {
          "id": 2,
          "value": -4.65004158
        },
        {
          "id": 3,
          "value": 0.066000089
        },
        {
          "id": 4,
          "value": 0.856499612
        },
        {
          "id": 5,
          "value": 0.5
        },
        {
          "id": 6,
          "value": 0.0
        }
      ],
      "pos": [
        32,
        2
      ]
    },
    {
      "id": 184,
      "plugin": "Fundamental",
      "version": "1.4.0",
      "model": "ADSR",
      "params": [
        {
          "id": 0,
          "value": 0.0450000018
        },
        {
          "id": 1,
          "value": 0.0
        },
        {
          "id": 2,
          "value": 0.996999979
        },
        {
          "id": 3,
          "value": 0.565999866
        }
      ],
      "pos": [
        23,
        2
      ]
    },
    {
      "id": 188,
      "plugin": "Fundamental",
      "version": "1.4.0",
      "model": "VCF",
      "params": [
        {
          "id": 0,
          "value": 0.625000179
        },
        {
          "id": 1,
          "value": 0.5
        },
        {
          "id": 2,
          "value": 0.0714999735
        },
        {
          "id": 3,
          "value": 1.0
        },
        {
          "id": 4,
          "value": 0.448499918
        }
      ],
      "pos": [
        43,
        2
      ]
    },
    {
      "id": 193,
      "plugin": "Bogaudio",
      "version": "1.1.37",
      "model": "Bogaudio-AddrSeq",
      "params": [
        {
          "id": 0,
          "value": 4.18149519
        },
        {
          "id": 1,
          "value": 1.0
        },
        {
          "id": 2,
          "value": 0.0
        },
        {
          "id": 3,
          "value": 0.173999995
        },
        {
          "id": 4,
          "value": -0.269999236
        },
        {
          "id": 5,
          "value": 0.21299991
        },
        {
          "id": 6,
          "value": -1.0
        },
        {
          "id": 7,
          "value": 0.276000142
        },
        {
          "id": 8,
          "value": 0.0
        },
        {
          "id": 9,
          "value": 0.0
        },
        {
          "id": 10,
          "value": 0.0
        }
      ],
      "data": {
        "poly_input": 0,
        "select_on_clock": false,
        "triggered_select": false,
        "reverse_on_negative_clock": false,
        "range_offset": 0.0,
        "range_scale": 10.0
      },
      "pos": [
        13,
        2
      ]
    }
  ],
  "cables": [
    {
      "id": 426,
      "outputModuleId": 149,
      "outputId": 1,
      "inputModuleId": 150,
      "inputId": 1,
      "color": "#0986ad"
    },
    {
      "id": 427,
      "outputModuleId": 150,
      "outputId": 0,
      "inputModuleId": 105,
      "inputId": 1,
      "color": "#c9b70e"
    },
    {
      "id": 428,
      "outputModuleId": 105,
      "outputId": 8,
      "inputModuleId": 101,
      "inputId": 0,
      "color": "#0c8e15"
    },
    {
      "id": 429,
      "outputModuleId": 101,
      "outputId": 0,
      "inputModuleId": 72,
      "inputId": 2,
      "color": "#c91847"
    },
    {
      "id": 432,
      "outputModuleId": 72,
      "outputId": 0,
      "inputModuleId": 1,
      "inputId": 0,
      "color": "#0c8e15"
    },
    {
      "id": 433,
      "outputModuleId": 72,
      "outputId": 0,
      "inputModuleId": 1,
      "inputId": 1,
      "color": "#0986ad"
    },
    {
      "id": 436,
      "outputModuleId": 105,
      "outputId": 10,
      "inputModuleId": 169,
      "inputId": 4,
      "color": "#0986ad"
    },
    {
      "id": 440,
      "outputModuleId": 130,
      "outputId": 0,
      "inputModuleId": 129,
      "inputId": 3,
      "color": "#0986ad"
    },
    {
      "id": 441,
      "outputModuleId": 129,
      "outputId": 0,
      "inputModuleId": 72,
      "inputId": 8,
      "color": "#c9b70e"
    },
    {
      "id": 443,
      "outputModuleId": 123,
      "outputId": 0,
      "inputModuleId": 72,
      "inputId": 6,
      "color": "#c91847"
    },
    {
      "id": 448,
      "outputModuleId": 143,
      "outputId": 0,
      "inputModuleId": 72,
      "inputId": 5,
      "color": "#c9b70e"
    },
    {
      "id": 455,
      "outputModuleId": 149,
      "outputId": 1,
      "inputModuleId": 151,
      "inputId": 0,
      "color": "#0986ad"
    },
    {
      "id": 461,
      "outputModuleId": 174,
      "outputId": 2,
      "inputModuleId": 168,
      "inputId": 3,
      "color": "#0c8e15"
    },
    {
      "id": 463,
      "outputModuleId": 168,
      "outputId": 1,
      "inputModuleId": 72,
      "inputId": 11,
      "color": "#c9b70e"
    },
    {
      "id": 479,
      "outputModuleId": 169,
      "outputId": 0,
      "inputModuleId": 182,
      "inputId": 1,
      "color": "#0c8e15"
    },
    {
      "id": 480,
      "outputModuleId": 182,
      "outputId": 0,
      "inputModuleId": 72,
      "inputId": 3,
      "color": "#0986ad"
    },
    {
      "id": 482,
      "outputModuleId": 175,
      "outputId": 0,
      "inputModuleId": 143,
      "inputId": 3,
      "color": "#0c8e15"
    },
    {
      "id": 483,
      "outputModuleId": 154,
      "outputId": 2,
      "inputModuleId": 175,
      "inputId": 0,
      "color": "#c91847"
    },
    {
      "id": 484,
      "outputModuleId": 160,
      "outputId": 0,
      "inputModuleId": 175,
      "inputId": 2,
      "color": "#0986ad"
    },
    {
      "id": 471,
      "outputModuleId": 105,
      "outputId": 3,
      "inputModuleId": 123,
      "inputId": 4,
      "color": "#c91847"
    },
    {
      "id": 462,
      "outputModuleId": 105,
      "outputId": 9,
      "inputModuleId": 174,
      "inputId": 1,
      "color": "#c91847"
    },
    {
      "id": 487,
      "outputModuleId": 105,
      "outputId": 4,
      "inputModuleId": 174,
      "inputId": 0,
      "color": "#0986ad"
    },
    {
      "id": 496,
      "outputModuleId": 160,
      "outputId": 0,
      "inputModuleId": 174,
      "inputId": 4,
      "color": "#0c8e15"
    },
    {
      "id": 490,
      "outputModuleId": 105,
      "outputId": 13,
      "inputModuleId": 184,
      "inputId": 4,
      "color": "#c91847"
    },
    {
      "id": 497,
      "outputModuleId": 183,
      "outputId": 0,
      "inputModuleId": 188,
      "inputId": 3,
      "color": "#c91847"
    },
    {
      "id": 489,
      "outputModuleId": 184,
      "outputId": 0,
      "inputModuleId": 72,
      "inputId": 12,
      "color": "#0c8e15"
    },
    {
      "id": 511,
      "outputModuleId": 193,
      "outputId": 0,
      "inputModuleId": 184,
      "inputId": 0,
      "color": "#0c8e15"
    },
    {
      "id": 510,
      "outputModuleId": 151,
      "outputId": 1,
      "inputModuleId": 193,
      "inputId": 0,
      "color": "#c9b70e"
    },
    {
      "id": 499,
      "outputModuleId": 188,
      "outputId": 0,
      "inputModuleId": 72,
      "inputId": 14,
      "color": "#c9b70e"
    }
  ]
}