{
  "version": "1.1.6",
  "modules": [
    {
      "id": 1,
      "plugin": "Core",
      "version": "1.1.6",
      "model": "AudioInterface",
      "params": [],
      "data": {
        "audio": {
          "driver": 5,
          "deviceName": "Apple Inc.: MacBook Air Lautsprecher",
          "offset": 0,
          "maxChannels": 8,
          "sampleRate": 44100,
          "blockSize": 256
        }
      },
      "pos": [
        141,
        0
      ]
    },
    {
      "id": 72,
      "plugin": "Bogaudio",
      "version": "1.1.37",
      "model": "Bogaudio-Mix8",
      "params": [
        {
          "id": 0,
          "value": 0.881499827
        },
        {
          "id": 1,
          "value": 0.0
        },
        {
          "id": 2,
          "value": 0.0
        },
        {
          "id": 3,
          "value": 0.882091999
        },
        {
          "id": 4,
          "value": 0.0
        },
        {
          "id": 5,
          "value": 0.0
        },
        {
          "id": 6,
          "value": 0.919000089
        },
        {
          "id": 7,
          "value": 0.0
        },
        {
          "id": 8,
          "value": 0.0270000808
        },
        {
          "id": 9,
          "value": 0.593499422
        },
        {
          "id": 10,
          "value": 0.0
        },
        {
          "id": 11,
          "value": -0.315000176
        },
        {
          "id": 12,
          "value": 0.813090801
        },
        {
          "id": 13,
          "value": 0.0
        },
        {
          "id": 14,
          "value": 0.234000027
        },
        {
          "id": 15,
          "value": 0.652591586
        },
        {
          "id": 16,
          "value": 0.0
        },
        {
          "id": 17,
          "value": 0.0
        },
        {
          "id": 18,
          "value": 0.909090936
        },
        {
          "id": 19,
          "value": 0.0
        },
        {
          "id": 20,
          "value": 0.0
        },
        {
          "id": 21,
          "value": 0.909090936
        },
        {
          "id": 22,
          "value": 0.0
        },
        {
          "id": 23,
          "value": 0.0
        },
        {
          "id": 24,
          "value": 0.909090936
        },
        {
          "id": 25,
          "value": 0.0
        },
        {
          "id": 26,
          "value": 0.0
        }
      ],
      "data": {
        "dim_decibels": 12.0,
        "poly_channel_offset": -1
      },
      "pos": [
        106,
        0
      ]
    },
    {
      "id": 74,
      "plugin": "ImpromptuModular",
      "version": "1.1.12",
      "model": "Clocked-Clkd",
      "params": [
        {
          "id": 0,
          "value": 0.0
        },
        {
          "id": 1,
          "value": 0.0
        },
        {
          "id": 2,
          "value": 0.0
        },
        {
          "id": 3,
          "value": 141.0
        },
        {
          "id": 4,
          "value": 0.0
        },
        {
          "id": 5,
          "value": 0.0
        },
        {
          "id": 6,
          "value": 0.0
        },
        {
          "id": 7,
          "value": 0.0
        },
        {
          "id": 8,
          "value": 0.0
        },
        {
          "id": 9,
          "value": 0.0
        }
      ],
      "data": {
        "panelTheme": 0,
        "running": true,
        "bpmDetectionMode": false,
        "resetOnStartStop": 0,
        "ppqn": 4,
        "resetClockOutputsHigh": true,
        "momentaryRunInput": true,
        "displayIndex": 0,
        "trigOuts": [
          false,
          false,
          false,
          false
        ],
        "clockMaster": -1
      },
      "pos": [
        0,
        0
      ]
    },
    {
      "id": 78,
      "plugin": "Extratone",
      "version": "1.2.0",
      "model": "Meganeura",
      "params": [
        {
          "id": 0,
          "value": 0.0
        },
        {
          "id": 1,
          "value": 0.0
        },
        {
          "id": 2,
          "value": 0.0
        },
        {
          "id": 3,
          "value": 3.0
        },
        {
          "id": 4,
          "value": 2.0
        },
        {
          "id": 5,
          "value": 2.0
        },
        {
          "id": 6,
          "value": 1.0
        }
      ],
      "pos": [
        58,
        0
      ]
    },
    {
      "id": 90,
      "plugin": "Fundamental",
      "version": "1.4.0",
      "model": "VCO",
      "params": [
        {
          "id": 0,
          "value": 1.0
        },
        {
          "id": 1,
          "value": 1.0
        },
        {
          "id": 2,
          "value": -49.2478714
        },
        {
          "id": 3,
          "value": -0.332000375
        },
        {
          "id": 4,
          "value": 0.259499878
        },
        {
          "id": 5,
          "value": 0.5
        },
        {
          "id": 6,
          "value": 0.0
        }
      ],
      "pos": [
        78,
        0
      ]
    },
    {
      "id": 93,
      "plugin": "Bogaudio",
      "version": "1.1.37",
      "model": "Bogaudio-AD",
      "params": [
        {
          "id": 0,
          "value": 0.0404995531
        },
        {
          "id": 1,
          "value": 0.358230054
        },
        {
          "id": 2,
          "value": 0.0
        },
        {
          "id": 3,
          "value": 0.0
        },
        {
          "id": 4,
          "value": 1.0
        }
      ],
      "data": {
        "invert": 1.0
      },
      "pos": [
        74,
        0
      ]
    },
    {
      "id": 99,
      "plugin": "Fundamental",
      "version": "1.4.0",
      "model": "VCF",
      "params": [
        {
          "id": 0,
          "value": 0.296999961
        },
        {
          "id": 1,
          "value": 0.5
        },
        {
          "id": 2,
          "value": 0.109499313
        },
        {
          "id": 3,
          "value": 0.0
        },
        {
          "id": 4,
          "value": 0.342000067
        }
      ],
      "pos": [
        89,
        0
      ]
    },
    {
      "id": 101,
      "plugin": "Befaco",
      "version": "1.1.1",
      "model": "Kickall",
      "params": [
        {
          "id": 0,
          "value": 54.2759399
        },
        {
          "id": 1,
          "value": 0.0
        },
        {
          "id": 2,
          "value": 0.259499907
        },
        {
          "id": 3,
          "value": 0.228998646
        },
        {
          "id": 4,
          "value": 0.0524998419
        },
        {
          "id": 5,
          "value": 0.272998393
        }
      ],
      "pos": [
        50,
        0
      ]
    },
    {
      "id": 103,
      "plugin": "Hora-treasureFree",
      "version": "1.0.3",
      "model": "HiHat",
      "params": [
        {
          "id": 0,
          "value": 0.5
        },
        {
          "id": 1,
          "value": 0.624150932
        },
        {
          "id": 2,
          "value": 0.730440021
        },
        {
          "id": 3,
          "value": 0.0
        },
        {
          "id": 4,
          "value": 0.0
        },
        {
          "id": 5,
          "value": 0.0
        },
        {
          "id": 6,
          "value": 1.25049996
        },
        {
          "id": 7,
          "value": 0.800000012
        },
        {
          "id": 8,
          "value": 0.636500061
        },
        {
          "id": 9,
          "value": 0.600000024
        },
        {
          "id": 10,
          "value": 0.100000001
        },
        {
          "id": 11,
          "value": 0.35650003
        }
      ],
      "pos": [
        64,
        1
      ]
    },
    {
      "id": 105,
      "plugin": "CountModula",
      "version": "1.15.1",
      "model": "GateSequencer8",
      "params": [
        {
          "id": 0,
          "value": 1.0
        },
        {
          "id": 1,
          "value": 0.0
        },
        {
          "id": 2,
          "value": 1.0
        },
        {
          "id": 3,
          "value": 0.0
        },
        {
          "id": 4,
          "value": 0.0
        },
        {
          "id": 5,
          "value": 0.0
        },
        {
          "id": 6,
          "value": 0.0
        },
        {
          "id": 7,
          "value": 0.0
        },
        {
          "id": 8,
          "value": 0.0
        },
        {
          "id": 9,
          "value": 1.0
        },
        {
          "id": 10,
          "value": 0.0
        },
        {
          "id": 11,
          "value": 1.0
        },
        {
          "id": 12,
          "value": 0.0
        },
        {
          "id": 13,
          "value": 0.0
        },
        {
          "id": 14,
          "value": 0.0
        },
        {
          "id": 15,
          "value": 0.0
        },
        {
          "id": 16,
          "value": 0.0
        },
        {
          "id": 17,
          "value": 0.0
        },
        {
          "id": 18,
          "value": 1.0
        },
        {
          "id": 19,
          "value": 0.0
        },
        {
          "id": 20,
          "value": 0.0
        },
        {
          "id": 21,
          "value": 0.0
        },
        {
          "id": 22,
          "value": 0.0
        },
        {
          "id": 23,
          "value": 0.0
        },
        {
          "id": 24,
          "value": 0.0
        },
        {
          "id": 25,
          "value": 0.0
        },
        {
          "id": 26,
          "value": 0.0
        },
        {
          "id": 27,
          "value": 0.0
        },
        {
          "id": 28,
          "value": 0.0
        },
        {
          "id": 29,
          "value": 0.0
        },
        {
          "id": 30,
          "value": 0.0
        },
        {
          "id": 31,
          "value": 0.0
        },
        {
          "id": 32,
          "value": 0.0
        },
        {
          "id": 33,
          "value": 0.0
        },
        {
          "id": 34,
          "value": 0.0
        },
        {
          "id": 35,
          "value": 0.0
        },
        {
          "id": 36,
          "value": 0.0
        },
        {
          "id": 37,
          "value": 0.0
        },
        {
          "id": 38,
          "value": 0.0
        },
        {
          "id": 39,
          "value": 0.0
        },
        {
          "id": 40,
          "value": 0.0
        },
        {
          "id": 41,
          "value": 0.0
        },
        {
          "id": 42,
          "value": 0.0
        },
        {
          "id": 43,
          "value": 0.0
        },
        {
          "id": 44,
          "value": 0.0
        },
        {
          "id": 45,
          "value": 0.0
        },
        {
          "id": 46,
          "value": 0.0
        },
        {
          "id": 47,
          "value": 0.0
        },
        {
          "id": 48,
          "value": 0.0
        },
        {
          "id": 49,
          "value": 0.0
        },
        {
          "id": 50,
          "value": 0.0
        },
        {
          "id": 51,
          "value": 0.0
        },
        {
          "id": 52,
          "value": 0.0
        },
        {
          "id": 53,
          "value": 0.0
        },
        {
          "id": 54,
          "value": 0.0
        },
        {
          "id": 55,
          "value": 0.0
        },
        {
          "id": 56,
          "value": 0.0
        },
        {
          "id": 57,
          "value": 0.0
        },
        {
          "id": 58,
          "value": 0.0
        },
        {
          "id": 59,
          "value": 0.0
        },
        {
          "id": 60,
          "value": 0.0
        },
        {
          "id": 61,
          "value": 0.0
        },
        {
          "id": 62,
          "value": 0.0
        },
        {
          "id": 63,
          "value": 0.0
        },
        {
          "id": 64,
          "value": 4.0
        },
        {
          "id": 65,
          "value": 0.0
        },
        {
          "id": 66,
          "value": 0.0
        },
        {
          "id": 67,
          "value": 0.0
        },
        {
          "id": 68,
          "value": 0.0
        },
        {
          "id": 69,
          "value": 0.0
        },
        {
          "id": 70,
          "value": 0.0
        },
        {
          "id": 71,
          "value": 0.0
        },
        {
          "id": 72,
          "value": 0.0
        },
        {
          "id": 73,
          "value": 0.0
        },
        {
          "id": 74,
          "value": 0.0
        }
      ],
      "data": {
        "moduleVersion": 1,
        "currentStep": 3,
        "direction": 0,
        "clockState": false,
        "runState": true,
        "theme": 0
      },
      "pos": [
        14,
        0
      ]
    },
    {
      "id": 106,
      "plugin": "Bogaudio",
      "version": "1.1.37",
      "model": "Bogaudio-Noise",
      "params": [],
      "rightModuleId": 107,
      "data": {
        "poly_channels": 1
      },
      "pos": [
        77,
        1
      ]
    },
    {
      "id": 107,
      "plugin": "Bogaudio",
      "version": "1.1.37",
      "model": "Bogaudio-AD",
      "params": [
        {
          "id": 0,
          "value": 0.0544210784
        },
        {
          "id": 1,
          "value": 0.130500019
        },
        {
          "id": 2,
          "value": 0.0
        },
        {
          "id": 3,
          "value": 0.0
        },
        {
          "id": 4,
          "value": 1.0
        }
      ],
      "leftModuleId": 106,
      "data": {
        "invert": 1.0
      },
      "pos": [
        80,
        1
      ]
    },
    {
      "id": 109,
      "plugin": "Fundamental",
      "version": "1.4.0",
      "model": "VCA-1",
      "params": [
        {
          "id": 0,
          "value": 1.0
        },
        {
          "id": 1,
          "value": 1.0
        }
      ],
      "pos": [
        84,
        1
      ]
    },
    {
      "id": 111,
      "plugin": "Fundamental",
      "version": "1.4.0",
      "model": "VCF",
      "params": [
        {
          "id": 0,
          "value": 0.977500021
        },
        {
          "id": 1,
          "value": 0.5
        },
        {
          "id": 2,
          "value": 0.109499313
        },
        {
          "id": 3,
          "value": 0.0
        },
        {
          "id": 4,
          "value": 0.313499957
        }
      ],
      "pos": [
        91,
        1
      ]
    },
    {
      "id": 113,
      "plugin": "RB-Clapper",
      "version": "1.0.1",
      "model": "RB-Clapper",
      "params": [
        {
          "id": 0,
          "value": 0.376999855
        },
        {
          "id": 1,
          "value": 0.377000123
        },
        {
          "id": 2,
          "value": 0.0
        },
        {
          "id": 3,
          "value": 1.0
        },
        {
          "id": 4,
          "value": 1.0
        },
        {
          "id": 5,
          "value": 1.0
        },
        {
          "id": 6,
          "value": 0.0
        }
      ],
      "pos": [
        86,
        2
      ]
    },
    {
      "id": 116,
      "plugin": "CountModula",
      "version": "1.15.1",
      "model": "ClockDivider",
      "params": [
        {
          "id": 0,
          "value": 0.0
        },
        {
          "id": 1,
          "value": 0.0
        }
      ],
      "data": {
        "moduleVersion": 1,
        "count": 186,
        "theme": 0
      },
      "pos": [
        71,
        2
      ]
    },
    {
      "id": 117,
      "plugin": "Fundamental",
      "version": "1.4.0",
      "model": "Delay",
      "params": [
        {
          "id": 0,
          "value": 0.555499434
        },
        {
          "id": 1,
          "value": 0.583499849
        },
        {
          "id": 2,
          "value": 0.729000032
        },
        {
          "id": 3,
          "value": 1.0
        }
      ],
      "pos": [
        97,
        2
      ]
    }
  ],
  "cables": [
    {
      "id": 175,
      "outputModuleId": 72,
      "outputId": 0,
      "inputModuleId": 1,
      "inputId": 0,
      "color": "#0986ad"
    },
    {
      "id": 176,
      "outputModuleId": 72,
      "outputId": 1,
      "inputModuleId": 1,
      "inputId": 1,
      "color": "#c9b70e"
    },
    {
      "id": 179,
      "outputModuleId": 74,
      "outputId": 3,
      "inputModuleId": 78,
      "inputId": 1,
      "color": "#0c8e15"
    },
    {
      "id": 201,
      "outputModuleId": 78,
      "outputId": 0,
      "inputModuleId": 93,
      "inputId": 0,
      "color": "#c91847"
    },
    {
      "id": 219,
      "outputModuleId": 93,
      "outputId": 0,
      "inputModuleId": 90,
      "inputId": 1,
      "color": "#c91847"
    },
    {
      "id": 220,
      "outputModuleId": 93,
      "outputId": 0,
      "inputModuleId": 72,
      "inputId": 3,
      "color": "#0986ad"
    },
    {
      "id": 239,
      "outputModuleId": 101,
      "outputId": 0,
      "inputModuleId": 72,
      "inputId": 2,
      "color": "#0c8e15"
    },
    {
      "id": 241,
      "outputModuleId": 99,
      "outputId": 1,
      "inputModuleId": 72,
      "inputId": 5,
      "color": "#c9b70e"
    },
    {
      "id": 242,
      "outputModuleId": 93,
      "outputId": 0,
      "inputModuleId": 99,
      "inputId": 0,
      "color": "#0c8e15"
    },
    {
      "id": 218,
      "outputModuleId": 90,
      "outputId": 0,
      "inputModuleId": 99,
      "inputId": 3,
      "color": "#0c8e15"
    },
    {
      "id": 250,
      "outputModuleId": 105,
      "outputId": 1,
      "inputModuleId": 103,
      "inputId": 1,
      "color": "#c91847"
    },
    {
      "id": 251,
      "outputModuleId": 105,
      "outputId": 8,
      "inputModuleId": 101,
      "inputId": 0,
      "color": "#0986ad"
    },
    {
      "id": 252,
      "outputModuleId": 78,
      "outputId": 1,
      "inputModuleId": 105,
      "inputId": 1,
      "color": "#c91847"
    },
    {
      "id": 255,
      "outputModuleId": 105,
      "outputId": 10,
      "inputModuleId": 107,
      "inputId": 0,
      "color": "#c91847"
    },
    {
      "id": 254,
      "outputModuleId": 107,
      "outputId": 0,
      "inputModuleId": 109,
      "inputId": 0,
      "color": "#0c8e15"
    },
    {
      "id": 244,
      "outputModuleId": 103,
      "outputId": 2,
      "inputModuleId": 72,
      "inputId": 8,
      "color": "#0986ad"
    },
    {
      "id": 269,
      "outputModuleId": 74,
      "outputId": 3,
      "inputModuleId": 116,
      "inputId": 0,
      "color": "#c9b70e"
    },
    {
      "id": 270,
      "outputModuleId": 116,
      "outputId": 3,
      "inputModuleId": 113,
      "inputId": 3,
      "color": "#0c8e15"
    },
    {
      "id": 264,
      "outputModuleId": 113,
      "outputId": 0,
      "inputModuleId": 117,
      "inputId": 4,
      "color": "#0c8e15"
    },
    {
      "id": 271,
      "outputModuleId": 117,
      "outputId": 0,
      "inputModuleId": 72,
      "inputId": 14,
      "color": "#c91847"
    },
    {
      "id": 273,
      "outputModuleId": 109,
      "outputId": 0,
      "inputModuleId": 111,
      "inputId": 3,
      "color": "#c9b70e"
    },
    {
      "id": 253,
      "outputModuleId": 106,
      "outputId": 1,
      "inputModuleId": 109,
      "inputId": 1,
      "color": "#c9b70e"
    },
    {
      "id": 261,
      "outputModuleId": 111,
      "outputId": 1,
      "inputModuleId": 72,
      "inputId": 11,
      "color": "#c9b70e"
    }
  ]
}