{
  "version": "1.1.6",
  "modules": [
    {
      "id": 2,
      "plugin": "Core",
      "version": "1.1.6",
      "model": "AudioInterface",
      "params": [],
      "data": {
        "audio": {
          "driver": 5,
          "deviceName": "Apple Inc.: MacBook Air Lautsprecher",
          "offset": 0,
          "maxChannels": 8,
          "sampleRate": 44100,
          "blockSize": 256
        }
      },
      "pos": [
        100,
        0
      ]
    },
    {
      "id": 10,
      "plugin": "Fundamental",
      "version": "1.4.0",
      "model": "LFO2",
      "params": [
        {
          "id": 0,
          "value": 0.0
        },
        {
          "id": 1,
          "value": 1.0
        },
        {
          "id": 2,
          "value": 6.39999819
        },
        {
          "id": 3,
          "value": 1.61549878
        },
        {
          "id": 4,
          "value": 0.5
        }
      ],
      "pos": [
        0,
        0
      ]
    },
    {
      "id": 11,
      "plugin": "Fundamental",
      "version": "1.4.0",
      "model": "VCMixer",
      "params": [
        {
          "id": 0,
          "value": 1.40799987
        },
        {
          "id": 1,
          "value": 1.0
        },
        {
          "id": 2,
          "value": 1.0
        },
        {
          "id": 3,
          "value": 0.987273037
        },
        {
          "id": 4,
          "value": 1.0
        }
      ],
      "pos": [
        89,
        0
      ]
    },
    {
      "id": 16,
      "plugin": "Fundamental",
      "version": "1.4.0",
      "model": "Scope",
      "params": [
        {
          "id": 0,
          "value": -0.0
        },
        {
          "id": 1,
          "value": 0.0
        },
        {
          "id": 2,
          "value": 0.0
        },
        {
          "id": 3,
          "value": 0.0
        },
        {
          "id": 4,
          "value": 15.8500004
        },
        {
          "id": 5,
          "value": 0.0
        },
        {
          "id": 6,
          "value": 0.0
        },
        {
          "id": 7,
          "value": 0.0
        }
      ],
      "data": {
        "lissajous": 0,
        "external": 0
      },
      "pos": [
        37,
        0
      ]
    },
    {
      "id": 17,
      "plugin": "MSM",
      "version": "1.0.0",
      "model": "WaveShaper",
      "params": [
        {
          "id": 0,
          "value": 1.0
        },
        {
          "id": 1,
          "value": 0.722499788
        },
        {
          "id": 2,
          "value": 0.748000324
        },
        {
          "id": 3,
          "value": 0.0539999083
        },
        {
          "id": 4,
          "value": 0.251999855
        },
        {
          "id": 5,
          "value": 0.0300002303
        },
        {
          "id": 6,
          "value": 0.5
        },
        {
          "id": 7,
          "value": 0.387500107
        }
      ],
      "data": {
        "Theme": 0
      },
      "pos": [
        25,
        0
      ]
    },
    {
      "id": 18,
      "plugin": "Fundamental",
      "version": "1.4.0",
      "model": "LFO2",
      "params": [
        {
          "id": 0,
          "value": 0.0
        },
        {
          "id": 1,
          "value": 1.0
        },
        {
          "id": 2,
          "value": -0.863002777
        },
        {
          "id": 3,
          "value": 0.976498842
        },
        {
          "id": 4,
          "value": 0.456498623
        }
      ],
      "pos": [
        17,
        0
      ]
    },
    {
      "id": 19,
      "plugin": "Fundamental",
      "version": "1.4.0",
      "model": "Random",
      "params": [
        {
          "id": 0,
          "value": -0.195894748
        },
        {
          "id": 1,
          "value": 0.833000302
        },
        {
          "id": 2,
          "value": 1.0
        },
        {
          "id": 3,
          "value": 1.0
        }
      ],
      "pos": [
        11,
        0
      ]
    },
    {
      "id": 20,
      "plugin": "Fundamental",
      "version": "1.4.0",
      "model": "VCF",
      "params": [
        {
          "id": 0,
          "value": 0.630997717
        },
        {
          "id": 1,
          "value": 0.521000147
        },
        {
          "id": 2,
          "value": 0.0
        },
        {
          "id": 3,
          "value": 0.444999307
        },
        {
          "id": 4,
          "value": 0.0
        }
      ],
      "pos": [
        51,
        0
      ]
    },
    {
      "id": 21,
      "plugin": "Fundamental",
      "version": "1.4.0",
      "model": "Delay",
      "params": [
        {
          "id": 0,
          "value": 0.319499791
        },
        {
          "id": 1,
          "value": 0.5
        },
        {
          "id": 2,
          "value": 0.5
        },
        {
          "id": 3,
          "value": 0.5
        }
      ],
      "pos": [
        79,
        0
      ]
    },
    {
      "id": 22,
      "plugin": "Fundamental",
      "version": "1.4.0",
      "model": "LFO2",
      "params": [
        {
          "id": 0,
          "value": 1.0
        },
        {
          "id": 1,
          "value": 1.0
        },
        {
          "id": 2,
          "value": -0.322995186
        },
        {
          "id": 3,
          "value": 0.0
        },
        {
          "id": 4,
          "value": 0.5
        }
      ],
      "pos": [
        63,
        0
      ]
    },
    {
      "id": 23,
      "plugin": "Bogaudio",
      "version": "1.1.37",
      "model": "Bogaudio-Offset",
      "params": [
        {
          "id": 0,
          "value": 0.0
        },
        {
          "id": 1,
          "value": -1.0
        }
      ],
      "data": {
        "disableOutputLimit": false,
        "offset_first": false
      },
      "pos": [
        71,
        0
      ]
    }
  ],
  "cables": [
    {
      "id": 8,
      "outputModuleId": 11,
      "outputId": 0,
      "inputModuleId": 2,
      "inputId": 0,
      "color": "#0c8e15"
    },
    {
      "id": 22,
      "outputModuleId": 17,
      "outputId": 0,
      "inputModuleId": 16,
      "inputId": 0,
      "color": "#0c8e15"
    },
    {
      "id": 21,
      "outputModuleId": 10,
      "outputId": 0,
      "inputModuleId": 17,
      "inputId": 0,
      "color": "#c9b70e"
    },
    {
      "id": 25,
      "outputModuleId": 18,
      "outputId": 0,
      "inputModuleId": 17,
      "inputId": 3,
      "color": "#0c8e15"
    },
    {
      "id": 26,
      "outputModuleId": 19,
      "outputId": 3,
      "inputModuleId": 18,
      "inputId": 0,
      "color": "#c91847"
    },
    {
      "id": 23,
      "outputModuleId": 17,
      "outputId": 0,
      "inputModuleId": 20,
      "inputId": 3,
      "color": "#c91847"
    },
    {
      "id": 33,
      "outputModuleId": 22,
      "outputId": 0,
      "inputModuleId": 23,
      "inputId": 2,
      "color": "#c91847"
    },
    {
      "id": 31,
      "outputModuleId": 20,
      "outputId": 0,
      "inputModuleId": 11,
      "inputId": 1,
      "color": "#0986ad"
    },
    {
      "id": 27,
      "outputModuleId": 19,
      "outputId": 3,
      "inputModuleId": 17,
      "inputId": 2,
      "color": "#0986ad"
    },
    {
      "id": 30,
      "outputModuleId": 19,
      "outputId": 3,
      "inputModuleId": 20,
      "inputId": 0,
      "color": "#c91847"
    }
  ]
}