{
  "version": "1.1.6",
  "modules": [
    {
      "id": 1,
      "plugin": "Core",
      "version": "1.1.6",
      "model": "AudioInterface",
      "params": [],
      "data": {
        "audio": {
          "driver": 5,
          "deviceName": "Apple Inc.: Built-in Output",
          "offset": 0,
          "maxChannels": 8,
          "sampleRate": 44100,
          "blockSize": 256
        }
      },
      "pos": [
        120,
        0
      ]
    },
    {
      "id": 21,
      "plugin": "Core",
      "version": "1.1.6",
      "model": "Notes",
      "params": [],
      "text": "Based on\n\n https://www.soundonsound.com/techniques/analysing-metallic-percussion\n\nand\n\nhttps://muffwiggler.com/forum/viewtopic.php?t=142808\n",
      "pos": [
        0,
        0
      ]
    },
    {
      "id": 31,
      "plugin": "Bogaudio",
      "version": "1.1.31",
      "model": "Bogaudio-VCO",
      "params": [
        {
          "id": 0,
          "value": 1.00500286
        },
        {
          "id": 1,
          "value": 0.0
        },
        {
          "id": 2,
          "value": 0.0
        },
        {
          "id": 3,
          "value": 0.0
        },
        {
          "id": 4,
          "value": 0.0
        },
        {
          "id": 5,
          "value": 1.0
        },
        {
          "id": 6,
          "value": 1.0
        }
      ],
      "data": {
        "poly_input": 0
      },
      "pos": [
        38,
        0
      ]
    },
    {
      "id": 32,
      "plugin": "Core",
      "version": "1.1.6",
      "model": "MIDIToCVInterface",
      "params": [],
      "data": {
        "channels": 1,
        "polyMode": 0,
        "clockDivision": 24,
        "lastPitch": 8192,
        "lastMod": 0,
        "midi": {
          "driver": -11,
          "deviceName": "QWERTY keyboard (US)",
          "channel": -1
        }
      },
      "pos": [
        19,
        0
      ]
    },
    {
      "id": 33,
      "plugin": "Fundamental",
      "version": "1.4.0",
      "model": "VCA-1",
      "params": [
        {
          "id": 0,
          "value": 1.0
        },
        {
          "id": 1,
          "value": 1.0
        }
      ],
      "pos": [
        49,
        0
      ]
    },
    {
      "id": 34,
      "plugin": "Bogaudio",
      "version": "1.1.31",
      "model": "Bogaudio-VCO",
      "params": [
        {
          "id": 0,
          "value": 2.44950032
        },
        {
          "id": 1,
          "value": 0.0
        },
        {
          "id": 2,
          "value": 0.0
        },
        {
          "id": 3,
          "value": 0.0
        },
        {
          "id": 4,
          "value": 0.0
        },
        {
          "id": 5,
          "value": 1.0
        },
        {
          "id": 6,
          "value": 1.0
        }
      ],
      "data": {
        "poly_input": 0
      },
      "pos": [
        53,
        0
      ]
    },
    {
      "id": 35,
      "plugin": "Fundamental",
      "version": "1.4.0",
      "model": "VCA-1",
      "params": [
        {
          "id": 0,
          "value": 1.0
        },
        {
          "id": 1,
          "value": 1.0
        }
      ],
      "pos": [
        64,
        0
      ]
    },
    {
      "id": 36,
      "plugin": "Fundamental",
      "version": "1.4.0",
      "model": "ADSR",
      "params": [
        {
          "id": 0,
          "value": 0.0
        },
        {
          "id": 1,
          "value": 0.574500322
        },
        {
          "id": 2,
          "value": 0.0
        },
        {
          "id": 3,
          "value": 0.0
        }
      ],
      "pos": [
        29,
        0
      ]
    },
    {
      "id": 37,
      "plugin": "Bogaudio",
      "version": "1.1.31",
      "model": "Bogaudio-VCO",
      "params": [
        {
          "id": 0,
          "value": 0.563997447
        },
        {
          "id": 1,
          "value": 0.0
        },
        {
          "id": 2,
          "value": 0.0
        },
        {
          "id": 3,
          "value": 0.0
        },
        {
          "id": 4,
          "value": 0.0
        },
        {
          "id": 5,
          "value": 1.0
        },
        {
          "id": 6,
          "value": 1.0
        }
      ],
      "data": {
        "poly_input": 0
      },
      "pos": [
        68,
        0
      ]
    },
    {
      "id": 38,
      "plugin": "Fundamental",
      "version": "1.4.0",
      "model": "VCA-1",
      "params": [
        {
          "id": 0,
          "value": 1.0
        },
        {
          "id": 1,
          "value": 1.0
        }
      ],
      "pos": [
        79,
        0
      ]
    },
    {
      "id": 39,
      "plugin": "Fundamental",
      "version": "1.4.0",
      "model": "VCF",
      "params": [
        {
          "id": 0,
          "value": 0.962499738
        },
        {
          "id": 1,
          "value": 0.5
        },
        {
          "id": 2,
          "value": 0.264000177
        },
        {
          "id": 3,
          "value": 0.0
        },
        {
          "id": 4,
          "value": 0.188999951
        }
      ],
      "pos": [
        110,
        0
      ]
    },
    {
      "id": 40,
      "plugin": "Bogaudio",
      "version": "1.1.31",
      "model": "Bogaudio-VCO",
      "params": [
        {
          "id": 0,
          "value": 1.99500418
        },
        {
          "id": 1,
          "value": 0.0
        },
        {
          "id": 2,
          "value": 0.0
        },
        {
          "id": 3,
          "value": 0.0
        },
        {
          "id": 4,
          "value": 0.0
        },
        {
          "id": 5,
          "value": 1.0
        },
        {
          "id": 6,
          "value": 1.0
        }
      ],
      "data": {
        "poly_input": 0
      },
      "pos": [
        83,
        0
      ]
    },
    {
      "id": 41,
      "plugin": "Fundamental",
      "version": "1.4.0",
      "model": "VCA-1",
      "params": [
        {
          "id": 0,
          "value": 1.0
        },
        {
          "id": 1,
          "value": 1.0
        }
      ],
      "pos": [
        94,
        0
      ]
    },
    {
      "id": 42,
      "plugin": "Fundamental",
      "version": "1.4.0",
      "model": "VCMixer",
      "params": [
        {
          "id": 0,
          "value": 1.0
        },
        {
          "id": 1,
          "value": 0.869741797
        },
        {
          "id": 2,
          "value": 0.861256063
        },
        {
          "id": 3,
          "value": 1.0
        },
        {
          "id": 4,
          "value": 1.0
        }
      ],
      "pos": [
        98,
        0
      ]
    }
  ],
  "cables": [
    {
      "id": 72,
      "outputModuleId": 34,
      "outputId": 0,
      "inputModuleId": 35,
      "inputId": 1,
      "color": "#0986ad"
    },
    {
      "id": 83,
      "outputModuleId": 37,
      "outputId": 0,
      "inputModuleId": 38,
      "inputId": 1,
      "color": "#0986ad"
    },
    {
      "id": 85,
      "outputModuleId": 40,
      "outputId": 0,
      "inputModuleId": 41,
      "inputId": 1,
      "color": "#c91847"
    },
    {
      "id": 86,
      "outputModuleId": 38,
      "outputId": 0,
      "inputModuleId": 41,
      "inputId": 0,
      "color": "#0986ad"
    },
    {
      "id": 87,
      "outputModuleId": 35,
      "outputId": 0,
      "inputModuleId": 42,
      "inputId": 1,
      "color": "#c9b70e"
    },
    {
      "id": 90,
      "outputModuleId": 36,
      "outputId": 0,
      "inputModuleId": 42,
      "inputId": 0,
      "color": "#0986ad"
    },
    {
      "id": 91,
      "outputModuleId": 41,
      "outputId": 0,
      "inputModuleId": 42,
      "inputId": 2,
      "color": "#c9b70e"
    },
    {
      "id": 93,
      "outputModuleId": 39,
      "outputId": 1,
      "inputModuleId": 1,
      "inputId": 1,
      "color": "#0c8e15"
    },
    {
      "id": 94,
      "outputModuleId": 42,
      "outputId": 0,
      "inputModuleId": 39,
      "inputId": 3,
      "color": "#c91847"
    },
    {
      "id": 96,
      "outputModuleId": 32,
      "outputId": 1,
      "inputModuleId": 36,
      "inputId": 4,
      "color": "#c9b70e"
    },
    {
      "id": 73,
      "outputModuleId": 31,
      "outputId": 0,
      "inputModuleId": 35,
      "inputId": 0,
      "color": "#c9b70e"
    }
  ]
}